<?xml version="1.0" encoding="UTF-8" standalone="no"?>
<svg
   xmlns:dc="http://purl.org/dc/elements/1.1/"
   xmlns:cc="http://creativecommons.org/ns#"
   xmlns:rdf="http://www.w3.org/1999/02/22-rdf-syntax-ns#"
   xmlns:svg="http://www.w3.org/2000/svg"
   xmlns="http://www.w3.org/2000/svg"
   xmlns:xlink="http://www.w3.org/1999/xlink"
   xmlns:sodipodi="http://sodipodi.sourceforge.net/DTD/sodipodi-0.dtd"
   xmlns:inkscape="http://www.inkscape.org/namespaces/inkscape"
   viewBox="0 0 100 100"
   width="100"
   height="100"
   id="svg2985"
   version="1.1"
   inkscape:version="0.91 r13725"
   sodipodi:docname="front.svg">
  <metadata
     id="metadata2993">
    <rdf:RDF>
      <cc:Work
         rdf:about="">
        <dc:format>image/svg+xml</dc:format>
        <dc:type
           rdf:resource="http://purl.org/dc/dcmitype/StillImage" />
        <dc:title />
      </cc:Work>
    </rdf:RDF>
  </metadata>
  <defs
     id="defs2991">
    <linearGradient
       inkscape:collect="always"
       id="linearGradient4780">
      <stop
         style="stop-color:#c8c8c8;stop-opacity:1"
         offset="0"
         id="stop4782" />
      <stop
         style="stop-color:#646464;stop-opacity:1"
         offset="1"
         id="stop4784" />
    </linearGradient>
    <linearGradient
       inkscape:collect="always"
       xlink:href="#linearGradient4780"
       id="linearGradient4766"
       x1="86.962402"
       y1="15.161654"
       x2="13.543697"
       y2="96.846947"
       gradientUnits="userSpaceOnUse"
       gradientTransform="translate(-0.470297,0.4702974)" />
  </defs>
  <sodipodi:namedview
     pagecolor="#ffffff"
     bordercolor="#666666"
     borderopacity="1"
     objecttolerance="10"
     gridtolerance="10"
     guidetolerance="10"
     inkscape:pageopacity="0"
     inkscape:pageshadow="2"
     inkscape:window-width="1536"
     inkscape:window-height="803"
     id="namedview2989"
     showgrid="false"
     inkscape:zoom="3.99"
     inkscape:cx="-5.764411"
     inkscape:cy="44.79099"
     inkscape:window-x="-8"
     inkscape:window-y="-8"
     inkscape:window-maximized="1"
     inkscape:current-layer="layer1" />
  <g
     inkscape:groupmode="layer"
     id="layer1"
     inkscape:label="Layer 1">
    <path
       inkscape:connector-curvature="0"
       style="fill:url(#linearGradient4766);fill-opacity:1;stroke:none;stroke-width:0.94059408;stroke-opacity:1"
       d="M 96.059408,3.9405943 96.059408,98 2,98 2,3.9405943 l 94.059408,0 z M 49.329148,13.996867 a 37.211622,37.211621 0 0 0 -37.21225,37.212254 37.211622,37.211621 0 0 0 37.21225,37.212252 37.211622,37.211621 0 0 0 37.21042,-37.212252 37.211622,37.211621 0 0 0 -37.21042,-37.212254 z"
       id="rect3554-9" />
    <path
       style="fill:#646464;fill-opacity:1;stroke:none;stroke-width:1.00990093;stroke-opacity:1"
       d="m -1,-1 0,102 102,0 0,-102 -102,0 z M 49.675272,9.9052345 A 40.353065,40.353065 0 0 1 90.029021,50.258984 40.353065,40.353065 0 0 1 49.675272,90.612734 40.353065,40.353065 0 0 1 9.3235146,50.258984 40.353065,40.353065 0 0 1 49.675272,9.9052345 Z"
       id="rect3554"
       inkscape:connector-curvature="0" />
  </g>
  <g
     inkscape:groupmode="layer"
     id="layer2"
     inkscape:label="Layer 2" />
</svg>
