<?xml version="1.0" encoding="UTF-8" standalone="no"?>
<svg
   xmlns:dc="http://purl.org/dc/elements/1.1/"
   xmlns:cc="http://creativecommons.org/ns#"
   xmlns:rdf="http://www.w3.org/1999/02/22-rdf-syntax-ns#"
   xmlns:svg="http://www.w3.org/2000/svg"
   xmlns="http://www.w3.org/2000/svg"
   xmlns:xlink="http://www.w3.org/1999/xlink"
   xmlns:sodipodi="http://sodipodi.sourceforge.net/DTD/sodipodi-0.dtd"
   xmlns:inkscape="http://www.inkscape.org/namespaces/inkscape"
   viewBox="0 0 100 100"
   id="svg3248"
   version="1.1"
   inkscape:version="0.91 r13725"
   width="100%"
   height="100%"
   sodipodi:docname="blue_queen.svg">
  <metadata
     id="metadata3274">
    <rdf:RDF>
      <cc:Work
         rdf:about="">
        <dc:format>image/svg+xml</dc:format>
        <dc:type
           rdf:resource="http://purl.org/dc/dcmitype/StillImage" />
        <dc:title />
      </cc:Work>
    </rdf:RDF>
  </metadata>
  <sodipodi:namedview
     pagecolor="#ffffff"
     bordercolor="#666666"
     borderopacity="1"
     objecttolerance="10"
     gridtolerance="10"
     guidetolerance="10"
     inkscape:pageopacity="0"
     inkscape:pageshadow="2"
     inkscape:window-width="1536"
     inkscape:window-height="803"
     id="namedview3272"
     showgrid="false"
     inkscape:zoom="6.675088"
     inkscape:cx="55.92574"
     inkscape:cy="56.747379"
     inkscape:window-x="-8"
     inkscape:window-y="-8"
     inkscape:window-maximized="1"
     inkscape:current-layer="svg3248" />
  <defs
     id="defs3250">
    <linearGradient
       inkscape:collect="always"
       id="linearGradient4718">
      <stop
         style="stop-color:#00a2ff;stop-opacity:1;"
         offset="0"
         id="stop4720" />
      <stop
         style="stop-color:#00a2ff;stop-opacity:0;"
         offset="1"
         id="stop4722" />
    </linearGradient>
    <linearGradient
       id="grad1"
       x1="0%"
       y1="0%"
       x2="100%"
       y2="0%">
      <stop
         offset="0%"
         style="stop-color:rgb(100,100,250);stop-opacity:1"
         id="stop3253" />
      <stop
         offset="100%"
         style="stop-color:rgb(0, 0, 250);stop-opacity:1"
         id="stop3255" />
    </linearGradient>
    <linearGradient
       id="grad2"
       x1="0%"
       y1="0%"
       x2="100%"
       y2="0%">
      <stop
         offset="0%"
         style="stop-color:rgb(0, 0, 250);stop-opacity:1"
         id="stop3258" />
      <stop
         offset="100%"
         style="stop-color:rgb(100,100,250);stop-opacity:1"
         id="stop3260" />
    </linearGradient>
    <linearGradient
       inkscape:collect="always"
       xlink:href="#grad1-1"
       id="linearGradient4832"
       gradientUnits="userSpaceOnUse"
       x1="10"
       y1="10"
       x2="90"
       y2="10" />
    <linearGradient
       id="grad1-1"
       x1="0"
       y1="0"
       x2="1"
       y2="0">
      <stop
         offset="0%"
         style="stop-color:rgb(100,100,230);stop-opacity:1"
         id="stop3201" />
      <stop
         offset="1"
         style="stop-color:#000056;stop-opacity:1;"
         id="stop3203" />
    </linearGradient>
    <radialGradient
       inkscape:collect="always"
       xlink:href="#linearGradient4718"
       id="radialGradient4724"
       cx="71.160111"
       cy="30.188186"
       fx="71.160111"
       fy="30.188186"
       r="23.101497"
       gradientTransform="matrix(1,0,0,1.0525229,0,-1.5855711)"
       gradientUnits="userSpaceOnUse" />
  </defs>
  <circle
     transform="translate(-5.8e-6,-2.9e-6)"
     sodipodi:ry="49"
     sodipodi:rx="49"
     sodipodi:cy="50"
     sodipodi:cx="50"
     d="M 99,50 C 99,77.061953 77.061953,99 50,99 22.938047,99 1,77.061953 1,50 1,22.938047 22.938047,1 50,1 77.061953,1 99,22.938047 99,50 z"
     r="49"
     style="fill:#3232e6;stroke:#000000;stroke-width:1"
     cx="50"
     cy="50"
     id="circle3210" />
  <circle
     transform="translate(-5.8e-6,-2.9e-6)"
     sodipodi:ry="40"
     sodipodi:rx="40"
     sodipodi:cy="50"
     sodipodi:cx="50"
     d="M 90,50 C 90,72.09139 72.09139,90 50,90 27.90861,90 10,72.09139 10,50 10,27.90861 27.90861,10 50,10 72.09139,10 90,27.90861 90,50 z"
     r="40"
     style="fill:url(#linearGradient4832);fill-opacity:1"
     cx="50"
     cy="50"
     id="circle3212" />
  <path
     style="fill:#323232;stroke:#ffffff;stroke-opacity:1"
     d="M 45 25.728516 L 45 45.728516 L 25 45.728516 L 25 55.728516 L 45 55.728516 L 45 75.728516 L 55 75.728516 L 55 55.728516 L 75 55.728516 L 75 45.728516 L 55 45.728516 L 55 25.728516 L 45 25.728516 z "
     id="rect3268" />
  <path
     style="fill:url(#radialGradient4724);fill-opacity:1"
     d="M 77.082989,15.500353 C 68.593767,8.9910061 58.205435,6.2841961 48.058614,5.8733321 c 8.670373,2.393891 18.022484,3.739623 25.376526,9.8944179 10.442199,7.831351 18.360359,20.552652 19.304329,34.573436 0.24233,1.036949 -0.14,5.98151 1.22733,3.44806 1.20212,-7.355763 -1.48005,-14.668568 -4.28662,-21.259784 -2.976,-6.612042 -7.38448,-12.403717 -12.59719,-17.029109 z"
     id="path4184"
     inkscape:connector-curvature="0" />
</svg>
