<?xml version="1.0" encoding="UTF-8" standalone="no"?>
<svg
   xmlns:dc="http://purl.org/dc/elements/1.1/"
   xmlns:cc="http://creativecommons.org/ns#"
   xmlns:rdf="http://www.w3.org/1999/02/22-rdf-syntax-ns#"
   xmlns:svg="http://www.w3.org/2000/svg"
   xmlns="http://www.w3.org/2000/svg"
   xmlns:xlink="http://www.w3.org/1999/xlink"
   xmlns:sodipodi="http://sodipodi.sourceforge.net/DTD/sodipodi-0.dtd"
   xmlns:inkscape="http://www.inkscape.org/namespaces/inkscape"
   viewBox="0 0 100 100"
   width="100"
   height="100"
   id="svg3006"
   version="1.1"
   inkscape:version="0.91 r13725"
   sodipodi:docname="black_tile.svg">
  <metadata
     id="metadata3014">
    <rdf:RDF>
      <cc:Work
         rdf:about="">
        <dc:format>image/svg+xml</dc:format>
        <dc:type
           rdf:resource="http://purl.org/dc/dcmitype/StillImage" />
        <dc:title />
      </cc:Work>
    </rdf:RDF>
  </metadata>
  <defs
     id="defs3012">
    <linearGradient
       inkscape:collect="always"
       id="linearGradient4951">
      <stop
         style="stop-color:#4d4d4d;stop-opacity:1;"
         offset="0"
         id="stop4953" />
      <stop
         style="stop-color:#4d4d4d;stop-opacity:0;"
         offset="1"
         id="stop4955" />
    </linearGradient>
    <radialGradient
       inkscape:collect="always"
       xlink:href="#linearGradient4951"
       id="radialGradient4957"
       cx="51.815659"
       cy="47.55452"
       fx="51.815659"
       fy="47.55452"
       r="44.362834"
       gradientTransform="matrix(1,0,0,0.89341871,0.42372881,6.3396083)"
       gradientUnits="userSpaceOnUse" />
    <radialGradient
       inkscape:collect="always"
       xlink:href="#linearGradient4951"
       id="radialGradient4965"
       cx="69.961678"
       cy="66.943932"
       fx="69.961678"
       fy="66.943932"
       r="26.182211"
       gradientTransform="matrix(1,0,0,0.79380354,0,13.803602)"
       gradientUnits="userSpaceOnUse" />
  </defs>
  <sodipodi:namedview
     pagecolor="#ffffff"
     bordercolor="#666666"
     borderopacity="1"
     objecttolerance="10"
     gridtolerance="10"
     guidetolerance="10"
     inkscape:pageopacity="0"
     inkscape:pageshadow="2"
     inkscape:window-width="1366"
     inkscape:window-height="705"
     id="namedview3010"
     showgrid="false"
     inkscape:zoom="2.36"
     inkscape:cx="50"
     inkscape:cy="50"
     inkscape:window-x="-8"
     inkscape:window-y="-8"
     inkscape:window-maximized="1"
     inkscape:current-layer="svg3006" />
  <rect
     style="fill:#333333;fill-rule:evenodd;stroke:#000000;stroke-width:1px;stroke-linecap:butt;stroke-linejoin:miter;stroke-opacity:1"
     id="rect3547"
     width="100"
     height="100"
     x="0.42372882"
     y="0.42372882" />
  <path
     style="fill:url(#radialGradient4957);fill-opacity:1"
     id="path4870"
     d="m 87.588834,15.937187 c -1.57609,0.430485 -1.769332,0.447292 -3.508842,1.127868 -2.091852,0.818429 -3.957414,1.668975 -5.961348,2.699622 -1.026888,0.528143 -4.034039,2.248703 -3.040421,1.660353 2.087198,-1.235889 4.214733,-2.402352 6.322099,-3.603527 -2.978422,1.698258 -5.52334,3.935318 -7.851212,6.422645 -2.46292,2.850998 -4.545013,6.019529 -6.208937,9.395927 -0.826017,1.858824 -1.103129,3.916738 -2.219218,5.651975 -0.706878,1.099014 -1.276432,1.566661 -2.199971,2.491295 -3.766079,3.133387 -8.1373,5.393114 -12.126871,8.203334 -0.805661,0.706988 -1.976482,1.635979 -1.724268,2.89954 0.1422,0.712382 1.148744,1.313202 1.618102,1.784486 0.09886,0.357521 0.317444,0.70221 0.296599,1.072561 -0.10075,1.790033 -2.254996,2.969273 -3.505632,3.841326 -0.607494,0.423595 -3.894012,2.574554 -4.476131,2.956672 -3.318968,2.176495 -6.504753,4.619283 -9.161456,7.582559 -0.207286,0.300292 -0.423522,0.594598 -0.621854,0.900876 -0.474024,0.732014 -0.817661,1.447575 -1.387812,2.124864 -1.475649,1.752939 -3.465921,2.994294 -5.319778,4.293507 -3.077664,1.953909 -6.009143,4.09075 -8.503004,6.755946 0,0 -10.1323257,4.261276 -10.1323257,4.261276 l 0,0 c 2.4598427,-2.852785 5.4550067,-5.099804 8.6471797,-7.089403 1.588999,-1.084075 3.795144,-2.420459 5.151077,-3.811995 0.851124,-0.87347 1.33883,-2.084347 1.953852,-3.11309 2.621947,-3.184836 6.008554,-5.679316 9.386717,-8.00307 2.034837,-1.345321 4.063301,-2.684076 6.066183,-4.075199 0.0193,-0.01348 1.735127,-1.112086 1.965245,-1.402021 0.09602,-0.12099 0.06904,-0.301097 0.103572,-0.451647 -1.4611,-1.461526 -3.033582,-2.959966 -1.664469,-5.226019 0.306384,-0.507101 0.805429,-0.869123 1.208144,-1.303685 3.87477,-2.88447 8.237022,-5.049968 12.063402,-8.019958 0.542025,-0.489962 1.799441,-1.582021 2.276947,-2.180128 1.30648,-1.636461 1.585954,-3.703319 2.315,-5.602692 1.602674,-3.450642 3.73363,-6.619421 6.006385,-9.66396 2.403745,-2.66914 4.978883,-5.111401 8.144436,-6.887843 7.981806,-4.610699 16.053321,-10.042958 25.101998,-12.4384622 0,0 -9.013385,6.7460672 -9.013385,6.7460672 z"
     inkscape:connector-curvature="0" />
  <path
     style="fill:url(#radialGradient4965);fill-opacity:1.0"
     id="path4906"
     d="m 96.143886,46.160402 c -3.27308,1.832699 -6.47112,3.786097 -9.58239,5.881103 -1.31952,1.077549 -3.95796,2.34117 -4.37247,4.17849 -0.0185,0.352376 0.17754,0.655864 0.16249,1.010634 -0.0359,0.845845 -0.69576,1.379899 -1.23301,1.947312 -2.57075,2.450866 -5.45079,4.539182 -8.06799,6.938124 -0.68335,0.775573 -1.67105,1.506619 -1.97674,2.551131 -0.0847,0.289365 -0.1014,0.594478 -0.15916,0.890396 -0.14246,0.233815 -0.2499,0.492959 -0.42738,0.701443 -0.20517,0.241011 -0.43859,0.466706 -0.7082,0.632521 -2.04135,1.255499 -4.13711,2.42032 -6.21027,3.62257 -1.19327,0.691991 -2.43078,1.298538 -3.64491,1.952436 -3.49117,2.004622 2.14089,-1.235762 3.11705,-1.71697 0.28619,-0.14108 -0.49556,0.40358 -0.72271,0.627663 -0.69352,0.684175 -0.62131,0.762686 -1.26912,1.487543 -0.25193,0.281886 -0.52609,0.543096 -0.78914,0.814646 -2.3685,2.27059 -5.12875,4.01889 -7.85489,5.81198 -1.00046,0.64279 -1.9898,1.29941 -2.95657,1.99156 0,0 -5.66901,2.24448 -5.66901,2.24448 l 0,0 c 1.00266,-0.73834 2.03819,-1.42301 3.09869,-2.0766 1.42281,-0.9414 2.91109,-1.80153 4.29636,-2.79784 1.07207,-0.77105 1.51756,-1.20035 2.50844,-2.04183 0.32101,-0.27261 0.64482,-0.54191 0.96724,-0.81286 0.26221,-0.24619 0.54169,-0.47518 0.78663,-0.73855 0.65466,-0.70392 1.13275,-1.759 1.96082,-2.289959 1.99243,-1.277551 4.05543,-2.441644 6.09206,-3.647475 0.36351,-0.215223 0.7386,-0.410268 1.10789,-0.615401 0.40724,-0.216217 0.81434,-0.432681 1.2217,-0.64865 0.41314,-0.219031 0.83024,-0.430699 1.2398,-0.656347 0.40889,-0.225277 1.61655,-0.934666 1.21519,-0.69624 -1.38965,0.825514 -2.77743,1.654477 -4.18016,2.457565 -0.25057,0.143459 0.4932,-0.302367 0.72242,-0.477942 0.17142,-0.131306 0.31711,-0.293171 0.47567,-0.439756 0.18846,-0.560055 0.0771,-0.99892 0.30883,-1.516662 0.41667,-0.930984 1.26021,-1.623896 1.92909,-2.355197 2.5924,-2.363391 5.44468,-4.421356 7.9663,-6.862424 0.30257,-0.293132 1.39309,-1.119077 1.30737,-1.687624 -0.043,-0.285013 -0.24258,-0.534608 -0.21209,-0.838289 0.0107,-0.17726 -0.0113,-0.3596 0.0321,-0.53178 0.48831,-1.933991 3.13832,-3.141315 4.52174,-4.288858 2.99051,-2.031159 6.05343,-3.948189 9.1877,-5.750498 0,0 5.8106,-2.253845 5.8106,-2.253845 z"
     inkscape:connector-curvature="0" />
</svg>
