<?xml version="1.0" encoding="UTF-8" standalone="no"?>
<svg
   xmlns:dc="http://purl.org/dc/elements/1.1/"
   xmlns:cc="http://creativecommons.org/ns#"
   xmlns:rdf="http://www.w3.org/1999/02/22-rdf-syntax-ns#"
   xmlns:svg="http://www.w3.org/2000/svg"
   xmlns="http://www.w3.org/2000/svg"
   xmlns:xlink="http://www.w3.org/1999/xlink"
   xmlns:sodipodi="http://sodipodi.sourceforge.net/DTD/sodipodi-0.dtd"
   xmlns:inkscape="http://www.inkscape.org/namespaces/inkscape"
   viewBox="0 0 100 100"
   width="100"
   height="100"
   id="svg2985"
   version="1.1"
   inkscape:version="0.91 r13725"
   sodipodi:docname="white_tile.svg">
  <metadata
     id="metadata2993">
    <rdf:RDF>
      <cc:Work
         rdf:about="">
        <dc:format>image/svg+xml</dc:format>
        <dc:type
           rdf:resource="http://purl.org/dc/dcmitype/StillImage" />
        <dc:title />
      </cc:Work>
    </rdf:RDF>
  </metadata>
  <defs
     id="defs2991">
    <linearGradient
       inkscape:collect="always"
       id="linearGradient5530">
      <stop
         style="stop-color:#f2f2f2;stop-opacity:1;"
         offset="0"
         id="stop5532" />
      <stop
         style="stop-color:#f2f2f2;stop-opacity:0;"
         offset="1"
         id="stop5534" />
    </linearGradient>
    <linearGradient
       inkscape:collect="always"
       id="linearGradient5514">
      <stop
         style="stop-color:#ececec;stop-opacity:1;"
         offset="0"
         id="stop5516" />
      <stop
         style="stop-color:#ececec;stop-opacity:0;"
         offset="1"
         id="stop5518" />
    </linearGradient>
    <radialGradient
       inkscape:collect="always"
       xlink:href="#linearGradient5514"
       id="radialGradient5520"
       cx="49.506345"
       cy="52.892137"
       fx="49.506345"
       fy="52.892137"
       r="44.362832"
       gradientTransform="matrix(1,0,0,0.89341876,0,5.6373097)"
       gradientUnits="userSpaceOnUse" />
    <radialGradient
       inkscape:collect="always"
       xlink:href="#linearGradient5530"
       id="radialGradient5536"
       cx="31.360324"
       cy="33.502724"
       fx="31.360324"
       fy="33.502724"
       r="26.182212"
       gradientTransform="matrix(1,0,0,0.79380349,0,6.9081449)"
       gradientUnits="userSpaceOnUse" />
  </defs>
  <sodipodi:namedview
     pagecolor="#ffffff"
     bordercolor="#666666"
     borderopacity="1"
     objecttolerance="10"
     gridtolerance="10"
     guidetolerance="10"
     inkscape:pageopacity="0"
     inkscape:pageshadow="2"
     inkscape:window-width="1366"
     inkscape:window-height="705"
     id="namedview2989"
     showgrid="false"
     inkscape:zoom="5.635641"
     inkscape:cx="30.192945"
     inkscape:cy="39.533754"
     inkscape:window-x="-8"
     inkscape:window-y="-8"
     inkscape:window-maximized="1"
     inkscape:current-layer="svg2985" />
  <rect
     style="fill:#e6e6e6"
     id="rect3554"
     width="100"
     height="100"
     x="0.35488421"
     y="-0.25478825" />
  <path
     style="fill:url(#radialGradient5520);fill-opacity:1"
     id="path4870"
     d="m 14.156896,85.780657 c 1.57609,-0.430485 1.769333,-0.447292 3.508842,-1.127868 2.091852,-0.818429 3.957414,-1.668975 5.961348,-2.699623 1.026888,-0.528143 4.034039,-2.248703 3.040421,-1.660353 -2.087198,1.235889 -4.214733,2.402353 -6.322099,3.603528 2.978422,-1.698259 5.523341,-3.935319 7.851212,-6.422646 2.46292,-2.850998 4.545013,-6.019529 6.208938,-9.395927 0.826016,-1.858824 1.103128,-3.916738 2.219217,-5.651975 0.706879,-1.099014 1.276432,-1.566661 2.199971,-2.491295 3.766079,-3.133387 8.137301,-5.393114 12.126871,-8.203334 0.805661,-0.706988 1.976482,-1.635979 1.724269,-2.89954 -0.142201,-0.712382 -1.148745,-1.313202 -1.618102,-1.784486 -0.09886,-0.357521 -0.317445,-0.70221 -0.2966,-1.072561 0.10075,-1.790033 2.254996,-2.969273 3.505632,-3.841326 0.607495,-0.423595 3.894012,-2.574554 4.476132,-2.956672 3.318967,-2.176495 6.504753,-4.619283 9.161456,-7.582559 0.207286,-0.300292 0.423521,-0.594598 0.621854,-0.900876 0.474024,-0.732014 0.817661,-1.447575 1.387812,-2.124864 1.475649,-1.752939 3.46592,-2.994294 5.319778,-4.293507 3.077663,-1.953909 6.009142,-4.09075 8.503003,-6.755946 0,0 10.132326,-4.261276 10.132326,-4.261276 l 0,0 c -2.45984,2.852785 -5.45501,5.099804 -8.64718,7.089403 -1.588999,1.084075 -3.795144,2.420459 -5.151077,3.811995 -0.851123,0.87347 -1.33883,2.084347 -1.953852,3.11309 -2.621946,3.184836 -6.008554,5.679316 -9.386717,8.00307 -2.034837,1.345321 -4.063301,2.684076 -6.066183,4.075199 -0.0193,0.01348 -1.735127,1.112086 -1.965245,1.402021 -0.09602,0.12099 -0.06904,0.301097 -0.103572,0.451647 1.4611,1.461526 3.033582,2.959966 1.664469,5.226019 -0.306384,0.507101 -0.805429,0.869123 -1.208144,1.303685 -3.87477,2.88447 -8.237022,5.049968 -12.063402,8.019958 -0.542025,0.489962 -1.799441,1.582021 -2.276947,2.180128 -1.30648,1.636461 -1.585954,3.703319 -2.315,5.602692 -1.602674,3.450642 -3.73363,6.619421 -6.006385,9.66396 -2.403745,2.66914 -4.978883,5.111401 -8.144436,6.887843 -7.981806,4.6107 -16.053321,10.042959 -25.1019936,12.438463 0,0 9.0133806,-6.746067 9.0133806,-6.746067 z"
     inkscape:connector-curvature="0" />
  <path
     style="fill:url(#radialGradient5536);fill-opacity:1"
     id="path4906"
     d="m 5.1781124,54.286255 c 3.27308,-1.832699 6.4711196,-3.786097 9.5823926,-5.881103 1.31952,-1.077549 3.957961,-2.34117 4.372471,-4.17849 0.0185,-0.352376 -0.17754,-0.655864 -0.162491,-1.010634 0.0359,-0.845845 0.69576,-1.379899 1.23301,-1.947312 2.57075,-2.450866 5.45079,-4.539182 8.06799,-6.938124 0.68335,-0.775573 1.67105,-1.506619 1.97674,-2.551131 0.0847,-0.289365 0.1014,-0.594478 0.15916,-0.890396 0.14246,-0.233815 0.2499,-0.492959 0.42738,-0.701443 0.20517,-0.241011 0.43859,-0.466706 0.7082,-0.632521 2.04135,-1.255499 4.137111,-2.42032 6.21027,-3.62257 1.19327,-0.691991 2.43078,-1.298538 3.64491,-1.952436 3.49117,-2.004622 -2.140889,1.235762 -3.117049,1.71697 -0.28619,0.14108 0.495559,-0.40358 0.722709,-0.627663 0.69352,-0.684175 0.621311,-0.762686 1.269121,-1.487543 0.25193,-0.281886 0.526089,-0.543096 0.78914,-0.814646 2.3685,-2.27059 5.12875,-4.01889 7.85489,-5.81198 1.000459,-0.64279 1.9898,-1.29941 2.95657,-1.99156 0,0 5.66901,-2.24448 5.66901,-2.24448 l 0,0 c -1.00266,0.73834 -2.03819,1.42301 -3.09869,2.0766 -1.42281,0.9414 -2.91109,1.80153 -4.29636,2.79784 -1.07207,0.77105 -1.517561,1.20035 -2.50844,2.04183 -0.32101,0.27261 -0.644821,0.54191 -0.96724,0.81286 -0.26221,0.24619 -0.54169,0.47518 -0.78663,0.73855 -0.65466,0.70392 -1.13275,1.759 -1.96082,2.289959 -1.99243,1.277551 -4.05543,2.441644 -6.09206,3.647475 -0.36351,0.215223 -0.738601,0.410268 -1.10789,0.615401 -0.40724,0.216217 -0.81434,0.432681 -1.2217,0.64865 -0.41314,0.219031 -0.83024,0.430699 -1.2398,0.656347 -0.40889,0.225277 -1.616551,0.934666 -1.215191,0.69624 1.38965,-0.825514 2.77743,-1.654477 4.18016,-2.457565 0.250571,-0.143459 -0.4932,0.302367 -0.72242,0.477942 -0.17142,0.131306 -0.31711,0.293171 -0.475669,0.439756 -0.188461,0.560055 -0.0771,0.99892 -0.30883,1.516662 -0.41667,0.930984 -1.26021,1.623896 -1.92909,2.355197 -2.5924,2.363391 -5.444681,4.421356 -7.9663,6.862424 -0.30257,0.293132 -1.39309,1.119077 -1.307371,1.687624 0.043,0.285013 0.24258,0.534608 0.212091,0.838289 -0.0107,0.17726 0.0113,0.3596 -0.0321,0.53178 -0.488309,1.933991 -3.13832,3.141315 -4.52174,4.288858 -2.99051,2.031159 -6.053429,3.948189 -9.187704,5.750498 0,0 -5.8105996,2.253845 -5.8105996,2.253845 z"
     inkscape:connector-curvature="0" />
</svg>
